<?xml version="1.0" standalone="no"?>
<!DOCTYPE svg PUBLIC "-//W3C//DTD SVG 20010904//EN"
 "http://www.w3.org/TR/2001/REC-SVG-20010904/DTD/svg10.dtd">
<svg version="1.0" xmlns="http://www.w3.org/2000/svg"
 width="512.000000pt" height="512.000000pt" viewBox="0 0 512.000000 512.000000"
 preserveAspectRatio="xMidYMid meet">
<metadata>
Created by potrace 1.11, written by Peter Selinger 2001-2013
</metadata>
<g transform="translate(0.000000,512.000000) scale(0.100000,-0.100000)"
fill="#000000" stroke="none">
<path d="M1920 5006 c-66 -14 -128 -55 -167 -113 -19 -29 -33 -41 -45 -37 -72
22 -285 47 -408 47 -114 1 -244 -8 -260 -18 -3 -2 -24 -6 -46 -9 -21 -2 -75
-16 -119 -31 -502 -169 -728 -617 -641 -1275 16 -119 95 -428 126 -495 6 -11
17 -40 25 -64 31 -91 109 -257 128 -273 27 -25 54 -22 73 7 16 25 15 29 -24
118 -64 147 -141 354 -157 423 -2 10 -11 44 -19 74 -15 56 -17 63 -35 160 -21
109 -23 137 -26 293 -6 411 134 695 426 864 59 34 189 80 279 99 132 27 408
24 560 -5 25 -5 62 -12 83 -16 33 -7 37 -11 37 -39 0 -46 42 -127 85 -165 107
-94 258 -93 359 2 l35 34 63 -28 c35 -16 94 -43 132 -62 l68 -34 -73 -43
c-151 -89 -398 -267 -564 -405 -221 -183 -498 -457 -655 -645 -25 -30 -59 -70
-76 -90 -29 -33 -170 -217 -207 -270 -174 -251 -347 -553 -432 -755 -77 -183
-145 -379 -171 -490 -18 -81 -46 -247 -52 -305 -11 -131 -4 -403 12 -429 2 -3
7 -22 10 -41 6 -37 43 -155 56 -179 5 -9 -4 -30 -26 -58 -108 -142 -61 -334
100 -409 69 -32 163 -29 228 8 l46 26 74 -38 c120 -62 266 -105 405 -120 75
-7 279 -5 353 4 63 8 115 16 140 21 14 3 40 8 59 11 50 8 56 10 176 44 190 54
350 117 572 228 l133 65 122 -61 c68 -33 164 -78 213 -100 l90 -38 5 -50 c18
-156 170 -264 326 -230 46 10 105 48 141 91 33 40 65 63 47 33 -4 -7 -3 -8 4
-4 6 4 51 2 99 -5 192 -24 413 -15 558 22 184 47 328 126 448 244 159 156 252
358 284 615 12 97 3 414 -12 440 -2 3 -6 25 -9 50 -13 100 -51 247 -101 395
-51 150 -79 220 -161 389 -24 49 -40 94 -37 99 3 6 2 7 -4 4 -6 -4 -18 12 -28
34 l-19 41 67 133 c87 172 169 376 217 541 33 113 47 174 75 329 27 153 24
421 -6 551 -24 106 -30 125 -62 204 -49 121 -112 216 -198 300 -41 40 -46 48
-38 73 27 98 -36 233 -135 287 -109 60 -231 37 -326 -60 l-35 -36 -70 11 c-97
15 -426 8 -455 -10 -3 -2 -26 -6 -50 -10 -79 -12 -212 -45 -330 -82 -63 -21
-117 -38 -120 -38 -11 -3 -47 -18 -87 -36 -24 -10 -45 -19 -49 -19 -9 0 -111
-47 -242 -113 l-123 -61 -107 54 c-59 30 -110 58 -113 63 -3 5 -10 8 -15 8 -5
0 -27 6 -49 15 l-40 15 -1 67 c-1 173 -146 291 -314 258z m2118 -218 c6 -1 13
-13 13 -27 5 -86 23 -135 72 -189 51 -54 104 -82 171 -89 66 -7 122 9 183 51
l50 34 39 -46 c91 -107 143 -199 182 -322 38 -119 50 -227 47 -405 -4 -161 -4
-160 -39 -340 -31 -155 -108 -389 -184 -555 -78 -170 -103 -220 -110 -220 -4
0 -16 15 -26 33 -21 35 -156 246 -169 262 -4 6 -25 35 -47 65 -22 30 -43 60
-47 65 -5 6 -40 51 -78 100 -156 202 -441 505 -634 675 -41 36 -92 81 -115
101 -107 95 -314 249 -471 352 -49 32 -102 68 -117 78 -15 10 -30 19 -34 19
-3 0 -16 8 -29 18 l-24 19 87 41 c164 77 217 100 315 136 98 37 304 99 362
110 66 12 212 35 245 39 30 3 321 -1 358 -5z m-1369 -450 c412 -248 877 -645
1191 -1018 30 -36 57 -67 60 -70 19 -17 140 -172 209 -267 77 -108 186 -274
245 -376 l28 -47 -42 -73 c-387 -656 -1025 -1300 -1687 -1702 l-112 -68 -73
43 c-215 127 -490 326 -682 494 -136 119 -178 158 -304 284 -278 280 -542 615
-726 924 l-58 98 43 72 c85 144 258 396 349 509 366 451 736 796 1155 1077
177 118 288 183 304 177 8 -3 53 -29 100 -57z m-1990 -1919 c7 -12 22 -38 33
-58 47 -85 298 -438 353 -497 5 -6 28 -33 50 -60 200 -244 457 -497 751 -741
120 -99 356 -267 497 -352 l89 -53 -64 -31 c-34 -17 -85 -41 -113 -55 -141
-68 -386 -157 -518 -187 -40 -9 -80 -19 -89 -21 -10 -2 -28 -6 -40 -9 -120
-28 -433 -40 -548 -21 -86 14 -197 48 -275 85 -83 39 -97 55 -73 79 7 7 12 41
12 84 -1 86 -25 143 -85 200 -55 51 -113 71 -193 66 l-65 -4 -15 41 c-22 58
-44 150 -54 228 -13 104 -6 349 13 448 3 13 8 40 11 59 15 82 67 272 100 365
69 193 156 389 169 378 4 -4 5 -3 2 4 -7 10 22 73 33 73 3 0 11 -10 19 -21z
m3815 -35 c100 -204 208 -475 219 -549 1 -11 5 -25 9 -30 5 -9 21 -76 45 -195
32 -159 41 -503 14 -519 -8 -6 -9 -11 -3 -15 30 -19 -96 -344 -163 -421 -113
-129 -174 -177 -297 -235 -47 -22 -92 -40 -100 -40 -8 0 -18 -4 -23 -8 -6 -5
-53 -17 -105 -27 -134 -27 -434 -26 -546 1 -17 4 -23 16 -27 56 -16 130 -119
228 -249 234 -85 4 -143 -19 -205 -83 l-53 -54 -87 38 c-49 20 -126 56 -172
79 l-84 42 72 42 c169 98 506 346 661 485 19 18 60 54 90 81 226 199 583 600
751 844 119 172 159 231 159 235 0 9 55 95 61 95 3 0 18 -25 33 -56z"/>
<path d="M4231 4306 c-30 -36 -16 -82 28 -91 30 -6 61 20 61 50 0 44 -63 73
-89 41z"/>
<path d="M2254 3770 l-119 -121 -1 -147 c-1 -103 2 -153 11 -167 7 -11 55 -63
107 -115 l94 -95 -1 -105 c-1 -58 -3 -107 -4 -109 0 -2 -65 61 -142 139 -181
181 -206 198 -299 201 -136 5 -254 -118 -245 -258 2 -27 10 -64 19 -82 l17
-31 -244 0 c-220 0 -245 -2 -259 -17 -13 -15 -15 -68 -15 -357 0 -306 1 -340
17 -356 15 -15 55 -17 449 -17 237 0 434 -2 436 -5 3 -3 -4 -17 -16 -32 -12
-15 -23 -25 -26 -22 -7 7 -95 -25 -128 -47 -45 -30 -91 -84 -113 -131 -20 -42
-82 -308 -82 -350 0 -12 8 -31 19 -40 17 -16 25 -15 134 9 64 15 127 28 139
29 65 9 155 56 202 106 37 40 56 76 91 177 2 6 14 18 27 26 13 8 72 44 132 81
l110 67 172 -172 173 -173 98 -27 c54 -15 137 -39 186 -53 101 -30 130 -32
151 -10 21 20 21 21 -15 149 -16 61 -32 117 -34 125 -37 144 -47 162 -139 252
-49 49 -88 89 -85 89 2 1 32 3 67 4 58 2 63 1 68 -21 8 -32 30 -33 398 -32
276 1 311 3 326 18 15 15 17 51 17 359 0 334 -1 342 -21 357 -17 11 -73 14
-302 14 l-282 0 35 38 c67 71 87 110 87 166 0 64 -28 113 -82 144 -42 23 -103
29 -145 13 -29 -11 -216 -170 -377 -321 -70 -65 -103 -90 -120 -90 -18 0 -20
7 -20 56 0 30 3 53 8 50 4 -2 16 2 26 9 15 11 18 28 19 96 1 66 5 87 19 101
11 11 24 16 30 12 7 -4 8 -3 4 4 -4 7 26 45 76 95 l83 82 1 155 2 155 -121
123 c-95 96 -127 122 -148 122 -46 0 -52 -18 -53 -173 l-1 -142 -105 -1 -106
-1 0 143 c-1 156 -7 174 -54 174 -21 0 -52 -25 -146 -120z"/>
<path d="M815 890 c-29 -32 -11 -77 35 -92 17 -6 60 36 60 58 0 19 -36 49 -60
50 -11 1 -26 -6 -35 -16z"/>
<path d="M4244 900 c-62 -25 -19 -116 45 -95 12 3 23 19 27 37 5 26 2 35 -16
50 -25 20 -26 20 -56 8z"/>
<path d="M817 4302 c-10 -10 -17 -25 -17 -33 0 -48 68 -74 93 -36 36 56 -32
118 -76 69z"/>
</g>
</svg>
